<svg width="1264" height="450" viewBox="0 0 1264 450" fill="none" xmlns="http://www.w3.org/2000/svg">
<path fill-rule="evenodd" clip-rule="evenodd" d="M147.329 2.53598L175.133 15.339L29.5396 331.518L1.73511 318.715L147.329 2.53598Z" fill="#FF0000" stroke="#FF0000" stroke-width="1.33333" stroke-miterlimit="8"/>
<path fill-rule="evenodd" clip-rule="evenodd" d="M137.658 16.586L164.35 1.60199L342.254 318.522L315.562 333.506L137.658 16.586Z" fill="#00B050" stroke="#00B050" stroke-width="1.33333" stroke-miterlimit="8"/>
<path fill-rule="evenodd" clip-rule="evenodd" d="M2.28833 342.127C29.1395 419.943 127.337 465.059 221.618 442.897C279.907 429.196 325.696 391.896 343.06 343.972L312.286 336.377C288.181 396.965 206.279 430.69 129.354 411.704C83.0636 400.28 47.0042 371.489 33.1315 334.877L2.28833 342.127Z" fill="white" stroke="black" stroke-width="1.33333" stroke-miterlimit="8"/>
<path fill-rule="evenodd" clip-rule="evenodd" d="M190.5 242C190.5 218.528 208.409 199.5 230.5 199.5C252.591 199.5 270.5 218.528 270.5 242C270.5 265.472 252.591 284.5 230.5 284.5C208.409 284.5 190.5 265.472 190.5 242Z" fill="#FF0000" stroke="#FF0000" stroke-width="1.33333" stroke-miterlimit="8"/>
<path fill-rule="evenodd" clip-rule="evenodd" d="M99.5 170.5C99.5 146.752 117.185 127.5 139 127.5C160.815 127.5 178.5 146.752 178.5 170.5C178.5 194.248 160.815 213.5 139 213.5C117.185 213.5 99.5 194.248 99.5 170.5Z" fill="white" stroke="black" stroke-width="1.33333" stroke-miterlimit="8"/>
<path fill-rule="evenodd" clip-rule="evenodd" d="M94.5001 295.5C94.5001 271.752 112.185 252.5 134 252.5C155.815 252.5 173.5 271.752 173.5 295.5C173.5 319.248 155.815 338.5 134 338.5C112.185 338.5 94.5001 319.248 94.5001 295.5Z" fill="#00B050" stroke="#00B050" stroke-width="1.33333" stroke-miterlimit="8"/>
<g filter="url(#filter0_f_1_3)">
<path fill-rule="evenodd" clip-rule="evenodd" d="M941.324 198.332C935.927 198.332 932.308 200.693 930.468 205.416C928.628 210.138 927.708 215.873 927.708 222.62C927.708 229.735 928.782 235.163 930.928 238.904C933.075 242.645 936.172 244.516 940.22 244.516C949.052 244.516 953.468 236.359 953.468 220.044C953.468 205.569 949.42 198.332 941.324 198.332ZM1053.91 193.732C1044.22 193.732 1039.37 202.809 1039.37 220.964C1039.37 229.305 1040.63 235.561 1043.14 239.732C1045.66 243.903 1049.37 245.988 1054.28 245.988C1059.67 245.988 1063.26 243.473 1065.04 238.444C1066.82 233.415 1067.71 226.361 1067.71 217.284C1067.71 201.583 1063.11 193.732 1053.91 193.732ZM647.908 193.732C638.218 193.732 633.372 202.809 633.372 220.964C633.372 229.305 634.63 235.561 637.144 239.732C639.659 243.903 643.37 245.988 648.276 245.988C653.674 245.988 657.262 243.473 659.04 238.444C660.819 233.415 661.708 226.361 661.708 217.284C661.708 201.583 657.108 193.732 647.908 193.732ZM472.908 193.732C463.218 193.732 458.372 202.809 458.372 220.964C458.372 229.305 459.63 235.561 462.144 239.732C464.659 243.903 468.37 245.988 473.276 245.988C478.674 245.988 482.262 243.473 484.04 238.444C485.819 233.415 486.708 226.361 486.708 217.284C486.708 201.583 482.108 193.732 472.908 193.732ZM781.54 171.284C788.042 171.284 793.654 172.787 798.376 175.792C803.099 178.797 806.442 183.121 808.404 188.764C811.716 182.999 815.887 178.644 820.916 175.7C825.946 172.756 831.65 171.284 838.028 171.284C847.964 171.284 855.386 174.166 860.292 179.932C865.199 185.697 867.652 193.977 867.652 204.772V239.916C867.652 242.983 868.266 244.915 869.492 245.712C870.719 246.509 873.479 246.908 877.772 246.908V266.044H831.22V213.604C831.22 208.452 830.638 204.496 829.472 201.736C828.307 198.976 825.884 197.596 822.204 197.596C817.911 197.596 814.936 199.313 813.28 202.748C811.624 206.182 810.796 211.212 810.796 217.836V239.548C810.796 242.492 811.471 244.455 812.82 245.436C814.17 246.417 817.114 246.908 821.652 246.908V266.044H774.364V211.396C774.364 202.196 771.298 197.596 765.164 197.596C761.484 197.596 758.694 199.129 756.792 202.196C754.891 205.263 753.94 209.433 753.94 214.708V240.284C753.94 242.737 754.492 244.455 755.596 245.436C756.7 246.417 758.97 246.908 762.404 246.908H764.796V266.044H708.124V246.908C711.804 246.785 714.288 246.601 715.576 246.356C716.864 246.111 717.754 245.405 718.244 244.24C718.735 243.075 718.98 240.959 718.98 237.892V202.38C718.98 200.049 718.674 198.362 718.06 197.32C717.447 196.277 716.036 195.756 713.828 195.756H708.124V176.62L751.916 173.86C752.652 175.577 753.112 177.233 753.296 178.828C753.48 180.422 753.634 182.753 753.756 185.82H754.124C756.946 181.158 760.81 177.57 765.716 175.056C770.623 172.541 775.898 171.284 781.54 171.284ZM1054.46 170.732C1069.55 170.732 1081.32 174.81 1089.79 182.968C1098.25 191.125 1102.48 202.38 1102.48 216.732C1102.48 230.348 1098.84 242.523 1091.54 253.256C1084.24 263.989 1071.02 269.356 1051.88 269.356C1040.11 269.356 1030.72 266.903 1023.73 261.996C1016.74 257.089 1011.86 251.048 1009.1 243.872C1006.34 236.696 1004.96 229.367 1004.96 221.884C1004.96 213.42 1006.59 205.293 1009.84 197.504C1013.09 189.714 1018.43 183.305 1025.85 178.276C1033.27 173.247 1042.81 170.732 1054.46 170.732ZM648.46 170.732C663.548 170.732 675.324 174.81 683.788 182.968C692.252 191.125 696.484 202.38 696.484 216.732C696.484 230.348 692.835 242.523 685.536 253.256C678.238 263.989 665.02 269.356 645.884 269.356C634.108 269.356 624.724 266.903 617.732 261.996C610.74 257.089 605.864 251.048 603.104 243.872C600.344 236.696 598.964 229.367 598.964 221.884C598.964 213.42 600.59 205.293 603.84 197.504C607.091 189.714 612.427 183.305 619.848 178.276C627.27 173.247 636.807 170.732 648.46 170.732ZM473.46 170.732C488.548 170.732 500.324 174.81 508.788 182.968C517.252 191.125 521.484 202.38 521.484 216.732C521.484 230.348 517.835 242.523 510.536 253.256C503.238 263.989 490.02 269.356 470.884 269.356C459.108 269.356 449.724 266.903 442.732 261.996C435.74 257.089 430.864 251.048 428.104 243.872C425.344 236.696 423.964 229.367 423.964 221.884C423.964 213.42 425.59 205.293 428.84 197.504C432.091 189.714 437.427 183.305 444.848 178.276C452.27 173.247 461.807 170.732 473.46 170.732ZM928.996 133.196V183.98H929.364C935.252 175.516 943.778 171.284 954.94 171.284C966.348 171.284 975.088 175.516 981.16 183.98C987.232 192.444 990.268 203.422 990.268 216.916C990.268 225.257 988.827 233.384 985.944 241.296C983.062 249.208 978.462 255.771 972.144 260.984C965.827 266.197 957.7 268.804 947.764 268.804C942.858 268.804 938.288 268.037 934.056 266.504C929.824 264.971 925.684 262.487 921.636 259.052L916.116 268.804H894.22V165.212C894.22 161.287 893.944 158.741 893.392 157.576C892.84 156.411 891.215 155.828 888.516 155.828H882.26V137.06L928.996 133.196ZM579.204 133.196V239.364C579.204 241.572 579.388 243.167 579.756 244.148C580.124 245.129 581.014 245.835 582.424 246.264C583.835 246.693 586.196 246.908 589.508 246.908V266.044H533.94V246.908H534.676C537.866 246.908 540.135 246.663 541.484 246.172C542.834 245.681 543.662 244.945 543.968 243.964C544.275 242.983 544.428 241.265 544.428 238.812V162.084C544.428 159.14 543.999 157.3 543.14 156.564C542.282 155.828 540.81 155.46 538.724 155.46H532.652V136.508L579.204 133.196ZM362.412 133.196C378.727 133.196 393.876 136.569 407.86 143.316V185.268H377.684V174.228C377.684 168.708 376.488 164.261 374.096 160.888C371.704 157.515 367.135 155.828 360.388 155.828C350.452 155.828 343.215 159.784 338.676 167.696C334.138 175.608 331.868 185.697 331.868 197.964C331.868 211.948 334.874 222.558 340.884 229.796C346.895 237.033 355.727 240.652 367.38 240.652C380.015 240.652 393.263 236.359 407.124 227.772V256.476C400.01 261.26 392.68 264.725 385.136 266.872C377.592 269.019 369.036 270.092 359.468 270.092C343.767 270.092 331.163 266.627 321.656 259.696C312.15 252.765 305.434 244.179 301.508 233.936C297.583 223.693 295.62 212.99 295.62 201.828C295.62 189.193 298.043 177.693 302.888 167.328C307.734 156.963 315.155 148.683 325.152 142.488C335.15 136.293 347.57 133.196 362.412 133.196Z" fill="#FF0000" stroke="#FF0000" stroke-miterlimit="10" stroke-linejoin="round"/>
</g>
<path fill-rule="evenodd" clip-rule="evenodd" d="M939.307 196.314C933.909 196.314 930.291 198.676 928.451 203.398C926.611 208.121 925.691 213.856 925.691 220.602C925.691 227.717 926.764 233.145 928.911 236.886C931.057 240.628 934.155 242.498 938.203 242.498C947.035 242.498 951.451 234.341 951.451 218.026C951.451 203.552 947.403 196.314 939.307 196.314ZM1051.89 191.714C1042.2 191.714 1037.35 200.792 1037.35 218.946C1037.35 227.288 1038.61 233.544 1041.13 237.714C1043.64 241.885 1047.35 243.97 1052.26 243.97C1057.66 243.97 1061.24 241.456 1063.02 236.426C1064.8 231.397 1065.69 224.344 1065.69 215.266C1065.69 199.565 1061.09 191.714 1051.89 191.714ZM645.891 191.714C636.2 191.714 631.355 200.792 631.355 218.946C631.355 227.288 632.612 233.544 635.127 237.714C637.641 241.885 641.352 243.97 646.259 243.97C651.656 243.97 655.244 241.456 657.023 236.426C658.801 231.397 659.691 224.344 659.691 215.266C659.691 199.565 655.091 191.714 645.891 191.714ZM470.891 191.714C461.2 191.714 456.355 200.792 456.355 218.946C456.355 227.288 457.612 233.544 460.127 237.714C462.641 241.885 466.352 243.97 471.259 243.97C476.656 243.97 480.244 241.456 482.023 236.426C483.801 231.397 484.691 224.344 484.691 215.266C484.691 199.565 480.091 191.714 470.891 191.714ZM779.523 169.266C786.024 169.266 791.636 170.769 796.359 173.774C801.081 176.78 804.424 181.104 806.387 186.746C809.699 180.981 813.869 176.626 818.899 173.682C823.928 170.738 829.632 169.266 836.011 169.266C845.947 169.266 853.368 172.149 858.275 177.914C863.181 183.68 865.635 191.96 865.635 202.754V237.898C865.635 240.965 866.248 242.897 867.475 243.694C868.701 244.492 871.461 244.89 875.755 244.89V264.026H829.203V211.586C829.203 206.434 828.62 202.478 827.455 199.718C826.289 196.958 823.867 195.578 820.187 195.578C815.893 195.578 812.919 197.296 811.263 200.73C809.607 204.165 808.779 209.194 808.779 215.818V237.53C808.779 240.474 809.453 242.437 810.803 243.418C812.152 244.4 815.096 244.89 819.635 244.89V264.026H772.347V209.378C772.347 200.178 769.28 195.578 763.147 195.578C759.467 195.578 756.676 197.112 754.775 200.178C752.873 203.245 751.923 207.416 751.923 212.69V238.266C751.923 240.72 752.475 242.437 753.579 243.418C754.683 244.4 756.952 244.89 760.387 244.89H762.779V264.026H706.107V244.89C709.787 244.768 712.271 244.584 713.559 244.338C714.847 244.093 715.736 243.388 716.227 242.222C716.717 241.057 716.963 238.941 716.963 235.874V200.362C716.963 198.032 716.656 196.345 716.043 195.302C715.429 194.26 714.019 193.738 711.811 193.738H706.107V174.602L749.899 171.842C750.635 173.56 751.095 175.216 751.279 176.81C751.463 178.405 751.616 180.736 751.739 183.802H752.107C754.928 179.141 758.792 175.553 763.699 173.038C768.605 170.524 773.88 169.266 779.523 169.266ZM1052.44 168.714C1067.53 168.714 1079.31 172.793 1087.77 180.95C1096.23 189.108 1100.47 200.362 1100.47 214.714C1100.47 228.33 1096.82 240.505 1089.52 251.238C1082.22 261.972 1069 267.338 1049.87 267.338C1038.09 267.338 1028.71 264.885 1021.71 259.978C1014.72 255.072 1009.85 249.03 1007.09 241.854C1004.33 234.678 1002.95 227.349 1002.95 219.866C1002.95 211.402 1004.57 203.276 1007.82 195.486C1011.07 187.697 1016.41 181.288 1023.83 176.258C1031.25 171.229 1040.79 168.714 1052.44 168.714ZM646.443 168.714C661.531 168.714 673.307 172.793 681.771 180.95C690.235 189.108 694.467 200.362 694.467 214.714C694.467 228.33 690.817 240.505 683.519 251.238C676.22 261.972 663.003 267.338 643.867 267.338C632.091 267.338 622.707 264.885 615.715 259.978C608.723 255.072 603.847 249.03 601.087 241.854C598.327 234.678 596.947 227.349 596.947 219.866C596.947 211.402 598.572 203.276 601.823 195.486C605.073 187.697 610.409 181.288 617.831 176.258C625.252 171.229 634.789 168.714 646.443 168.714ZM471.443 168.714C486.531 168.714 498.307 172.793 506.771 180.95C515.235 189.108 519.467 200.362 519.467 214.714C519.467 228.33 515.817 240.505 508.519 251.238C501.22 261.972 488.003 267.338 468.867 267.338C457.091 267.338 447.707 264.885 440.715 259.978C433.723 255.072 428.847 249.03 426.087 241.854C423.327 234.678 421.947 227.349 421.947 219.866C421.947 211.402 423.572 203.276 426.823 195.486C430.073 187.697 435.409 181.288 442.831 176.258C450.252 171.229 459.789 168.714 471.443 168.714ZM926.979 131.178V181.962H927.347C933.235 173.498 941.76 169.266 952.923 169.266C964.331 169.266 973.071 173.498 979.143 181.962C985.215 190.426 988.251 201.405 988.251 214.898C988.251 223.24 986.809 231.366 983.927 239.278C981.044 247.19 976.444 253.753 970.127 258.966C963.809 264.18 955.683 266.786 945.747 266.786C940.84 266.786 936.271 266.02 932.039 264.486C927.807 262.953 923.667 260.469 919.619 257.034L914.099 266.786H892.203V163.194C892.203 159.269 891.927 156.724 891.375 155.558C890.823 154.393 889.197 153.81 886.499 153.81H880.243V135.042L926.979 131.178ZM577.187 131.178V237.346C577.187 239.554 577.371 241.149 577.739 242.13C578.107 243.112 578.996 243.817 580.407 244.246C581.817 244.676 584.179 244.89 587.491 244.89V264.026H531.923V244.89H532.659C535.848 244.89 538.117 244.645 539.467 244.154C540.816 243.664 541.644 242.928 541.951 241.946C542.257 240.965 542.411 239.248 542.411 236.794V160.066C542.411 157.122 541.981 155.282 541.123 154.546C540.264 153.81 538.792 153.442 536.707 153.442H530.635V134.49L577.187 131.178ZM360.395 131.178C376.709 131.178 391.859 134.552 405.843 141.298V183.25H375.667V172.21C375.667 166.69 374.471 162.244 372.079 158.87C369.687 155.497 365.117 153.81 358.371 153.81C348.435 153.81 341.197 157.766 336.659 165.678C332.12 173.59 329.851 183.68 329.851 195.946C329.851 209.93 332.856 220.541 338.867 227.778C344.877 235.016 353.709 238.634 365.363 238.634C377.997 238.634 391.245 234.341 405.107 225.754V254.458C397.992 259.242 390.663 262.708 383.119 264.854C375.575 267.001 367.019 268.074 357.451 268.074C341.749 268.074 329.145 264.609 319.639 257.678C310.132 250.748 303.416 242.161 299.491 231.918C295.565 221.676 293.603 210.973 293.603 199.81C293.603 187.176 296.025 175.676 300.871 165.31C305.716 154.945 313.137 146.665 323.135 140.47C333.132 134.276 345.552 131.178 360.395 131.178Z" fill="#FF0000" stroke="#FF0000" stroke-miterlimit="10" stroke-linejoin="round"/>
<g filter="url(#filter1_f_1_3)">
<path fill-rule="evenodd" clip-rule="evenodd" d="M1131.75 136.876H1166.16L1145 160.612H1121.27L1131.75 136.876Z" fill="#FF0000" stroke="#FF0000" stroke-miterlimit="10" stroke-linejoin="round"/>
</g>
<path fill-rule="evenodd" clip-rule="evenodd" d="M1129.74 134.858H1164.14L1142.98 158.594H1119.25L1129.74 134.858Z" fill="#FF0000" stroke="#FF0000" stroke-miterlimit="10" stroke-linejoin="round"/>
<g filter="url(#filter2_f_1_3)">
<path fill-rule="evenodd" clip-rule="evenodd" d="M1218.3 170.732C1223.94 170.732 1230.04 171.284 1236.6 172.388C1243.17 173.492 1249.02 175.148 1254.18 177.356V201.092H1227.86V197.596C1227.86 194.407 1227.16 192.015 1225.75 190.42C1224.34 188.825 1221.91 188.028 1218.48 188.028C1215.41 188.028 1213.2 188.733 1211.86 190.144C1210.51 191.555 1209.83 193.119 1209.83 194.836C1209.83 196.308 1210.14 197.565 1210.75 198.608C1211.36 199.651 1212.53 200.663 1214.25 201.644C1215.72 202.503 1219.58 204.159 1225.84 206.612C1227.19 207.225 1228.51 207.777 1229.8 208.268C1231.08 208.759 1232.4 209.311 1233.75 209.924C1243.32 213.972 1249.82 217.959 1253.26 221.884C1257.06 226.055 1258.96 231.636 1258.96 238.628C1258.96 242.553 1258.04 246.755 1256.2 251.232C1254.36 255.709 1251.23 259.481 1246.82 262.548C1240.31 267.087 1230.56 269.356 1217.56 269.356C1203.58 269.356 1190.7 267.148 1178.92 262.732V236.972H1205.42C1205.54 241.388 1206.21 244.669 1207.44 246.816C1208.67 248.963 1211.24 250.036 1215.17 250.036C1218.23 250.036 1220.53 249.3 1222.07 247.828C1223.6 246.356 1224.37 244.516 1224.37 242.308C1224.37 240.1 1223.69 238.291 1222.34 236.88C1220.99 235.469 1218.36 233.967 1214.43 232.372L1203.76 227.956C1195.3 224.399 1189.04 220.351 1184.99 215.812C1180.94 211.273 1178.92 205.999 1178.92 199.988C1178.92 192.015 1182.02 185.145 1188.21 179.38C1194.41 173.615 1204.43 170.732 1218.3 170.732Z" fill="#FF0000" stroke="#FF0000" stroke-miterlimit="10" stroke-linejoin="round"/>
</g>
<path fill-rule="evenodd" clip-rule="evenodd" d="M1216.28 168.714C1221.92 168.714 1228.02 169.266 1234.59 170.37C1241.15 171.474 1247.01 173.13 1252.16 175.338V199.074H1225.85V195.578C1225.85 192.389 1225.14 189.997 1223.73 188.402C1222.32 186.808 1219.9 186.01 1216.46 186.01C1213.39 186.01 1211.19 186.716 1209.84 188.126C1208.49 189.537 1207.81 191.101 1207.81 192.818C1207.81 194.29 1208.12 195.548 1208.73 196.59C1209.35 197.633 1210.51 198.645 1212.23 199.626C1213.7 200.485 1217.57 202.141 1223.82 204.594C1225.17 205.208 1226.49 205.76 1227.78 206.25C1229.07 206.741 1230.38 207.293 1231.73 207.906C1241.3 211.954 1247.8 215.941 1251.24 219.866C1255.04 224.037 1256.94 229.618 1256.94 236.61C1256.94 240.536 1256.02 244.737 1254.18 249.214C1252.34 253.692 1249.21 257.464 1244.8 260.53C1238.3 265.069 1228.54 267.338 1215.54 267.338C1201.56 267.338 1188.68 265.13 1176.9 260.714V234.954H1203.4C1203.52 239.37 1204.19 242.652 1205.42 244.798C1206.65 246.945 1209.22 248.018 1213.15 248.018C1216.22 248.018 1218.52 247.282 1220.05 245.81C1221.58 244.338 1222.35 242.498 1222.35 240.29C1222.35 238.082 1221.67 236.273 1220.33 234.862C1218.98 233.452 1216.34 231.949 1212.41 230.354L1201.74 225.938C1193.28 222.381 1187.02 218.333 1182.97 213.794C1178.93 209.256 1176.9 203.981 1176.9 197.97C1176.9 189.997 1180 183.128 1186.19 177.362C1192.39 171.597 1202.42 168.714 1216.28 168.714Z" fill="#FF0000" stroke="#FF0000" stroke-miterlimit="10" stroke-linejoin="round"/>
<path d="M350 299H1231.35" stroke="#FF0000" stroke-width="8" stroke-miterlimit="8"/>
<defs>
<filter id="filter0_f_1_3" x="291.174" y="128.749" width="815.757" height="145.79" filterUnits="userSpaceOnUse" color-interpolation-filters="sRGB">
<feFlood flood-opacity="0" result="BackgroundImageFix"/>
<feBlend mode="normal" in="SourceGraphic" in2="BackgroundImageFix" result="shape"/>
<feGaussianBlur stdDeviation="1.97338" result="effect1_foregroundBlur_1_3"/>
</filter>
<filter id="filter1_f_1_3" x="1116.82" y="132.429" width="53.7895" height="32.6295" filterUnits="userSpaceOnUse" color-interpolation-filters="sRGB">
<feFlood flood-opacity="0" result="BackgroundImageFix"/>
<feBlend mode="normal" in="SourceGraphic" in2="BackgroundImageFix" result="shape"/>
<feGaussianBlur stdDeviation="1.97338" result="effect1_foregroundBlur_1_3"/>
</filter>
<filter id="filter2_f_1_3" x="1174.47" y="166.285" width="88.9335" height="107.518" filterUnits="userSpaceOnUse" color-interpolation-filters="sRGB">
<feFlood flood-opacity="0" result="BackgroundImageFix"/>
<feBlend mode="normal" in="SourceGraphic" in2="BackgroundImageFix" result="shape"/>
<feGaussianBlur stdDeviation="1.97338" result="effect1_foregroundBlur_1_3"/>
</filter>
</defs>
</svg>
